frame:0    pts:220160  pts_time:17.2
lavfi.scene_score=0.498742
frame:1    pts:299520  pts_time:23.4
lavfi.scene_score=0.582681
frame:2    pts:360448  pts_time:28.16
lavfi.scene_score=0.646859
frame:3    pts:367616  pts_time:28.72
lavfi.scene_score=0.251225
frame:4    pts:404992  pts_time:31.64
lavfi.scene_score=0.536784
frame:5    pts:456704  pts_time:35.68
lavfi.scene_score=0.560457
frame:6    pts:500224  pts_time:39.08
lavfi.scene_score=0.537638
frame:7    pts:563712  pts_time:44.04
lavfi.scene_score=0.253566
frame:8    pts:596480  pts_time:46.6
lavfi.scene_score=0.621959
frame:9    pts:608768  pts_time:47.56
lavfi.scene_score=0.557078
frame:10   pts:650752  pts_time:50.84
lavfi.scene_score=0.533089
frame:11   pts:715776  pts_time:55.92
lavfi.scene_score=0.294976
frame:12   pts:1247744 pts_time:97.48
lavfi.scene_score=0.612807
frame:13   pts:1344512 pts_time:105.04
lavfi.scene_score=0.563424
frame:14   pts:1372672 pts_time:107.24
lavfi.scene_score=0.536142
frame:15   pts:1459712 pts_time:114.04
lavfi.scene_score=0.456939
frame:16   pts:1471488 pts_time:114.96
lavfi.scene_score=0.484850
frame:17   pts:1494016 pts_time:116.72
lavfi.scene_score=0.518432
frame:18   pts:1527296 pts_time:119.32
lavfi.scene_score=0.315809
frame:19   pts:1537536 pts_time:120.12
lavfi.scene_score=0.354042
frame:20   pts:1589248 pts_time:124.16
lavfi.scene_score=0.565476
frame:21   pts:1627136 pts_time:127.12
lavfi.scene_score=0.250195
frame:22   pts:1655808 pts_time:129.36
lavfi.scene_score=0.587286
frame:23   pts:1806848 pts_time:141.16
lavfi.scene_score=0.583148
frame:24   pts:1809920 pts_time:141.4
lavfi.scene_score=0.394223
frame:25   pts:1814016 pts_time:141.72
lavfi.scene_score=0.255393
frame:26   pts:1818112 pts_time:142.04
lavfi.scene_score=0.267200
frame:27   pts:1828864 pts_time:142.88
lavfi.scene_score=0.573884
frame:28   pts:1831424 pts_time:143.08
lavfi.scene_score=0.348042
frame:29   pts:1911296 pts_time:149.32
lavfi.scene_score=0.310928
frame:30   pts:1917440 pts_time:149.8
lavfi.scene_score=0.476124
frame:31   pts:1923072 pts_time:150.24
lavfi.scene_score=0.533451
frame:32   pts:1931264 pts_time:150.88
lavfi.scene_score=0.452438
frame:33   pts:1942528 pts_time:151.76
lavfi.scene_score=0.454754
frame:34   pts:1957376 pts_time:152.92
lavfi.scene_score=0.264241
frame:35   pts:1988096 pts_time:155.32
lavfi.scene_score=0.276992
frame:36   pts:2025472 pts_time:158.24
lavfi.scene_score=0.278603
frame:37   pts:2056192 pts_time:160.64
lavfi.scene_score=0.458273
frame:38   pts:2117120 pts_time:165.4
lavfi.scene_score=0.636225
frame:39   pts:2281984 pts_time:178.28
lavfi.scene_score=0.424920
frame:40   pts:2318336 pts_time:181.12
lavfi.scene_score=0.421220
frame:41   pts:2426880 pts_time:189.6
lavfi.scene_score=0.401275
frame:42   pts:2461184 pts_time:192.28
lavfi.scene_score=0.337245
frame:43   pts:2594304 pts_time:202.68
lavfi.scene_score=0.470008
frame:44   pts:2679296 pts_time:209.32
lavfi.scene_score=0.542313
frame:45   pts:2823168 pts_time:220.56
lavfi.scene_score=0.283433
frame:46   pts:2903040 pts_time:226.8
lavfi.scene_score=0.359501
frame:47   pts:2918400 pts_time:228
lavfi.scene_score=0.361905
frame:48   pts:3000320 pts_time:234.4
lavfi.scene_score=0.285966
frame:49   pts:3216384 pts_time:251.28
lavfi.scene_score=0.341399
frame:50   pts:3231232 pts_time:252.44
lavfi.scene_score=0.515620
frame:51   pts:3252224 pts_time:254.08
lavfi.scene_score=0.433365
frame:52   pts:3316224 pts_time:259.08
lavfi.scene_score=0.464789
frame:53   pts:3384832 pts_time:264.44
lavfi.scene_score=0.404550
frame:54   pts:3395072 pts_time:265.24
lavfi.scene_score=0.362729
frame:55   pts:3417088 pts_time:266.96
lavfi.scene_score=0.338633
frame:56   pts:3431424 pts_time:268.08
lavfi.scene_score=0.396532
frame:57   pts:3457536 pts_time:270.12
lavfi.scene_score=0.382783
frame:58   pts:3496448 pts_time:273.16
lavfi.scene_score=0.290928
frame:59   pts:3560960 pts_time:278.2
lavfi.scene_score=0.327251
frame:60   pts:3567104 pts_time:278.68
lavfi.scene_score=0.393827
frame:61   pts:3614208 pts_time:282.36
lavfi.scene_score=0.308812
frame:62   pts:3650560 pts_time:285.2
lavfi.scene_score=0.712790
frame:63   pts:3674624 pts_time:287.08
lavfi.scene_score=0.260203
frame:64   pts:3685376 pts_time:287.92
lavfi.scene_score=0.255887
frame:65   pts:3808256 pts_time:297.52
lavfi.scene_score=0.442454
frame:66   pts:3885568 pts_time:303.56
lavfi.scene_score=0.539172
frame:67   pts:3902464 pts_time:304.88
lavfi.scene_score=0.296983
frame:68   pts:3910144 pts_time:305.48
lavfi.scene_score=0.375838
frame:69   pts:4056576 pts_time:316.92
lavfi.scene_score=0.526990
frame:70   pts:4069376 pts_time:317.92
lavfi.scene_score=0.468809
frame:71   pts:4082176 pts_time:318.92
lavfi.scene_score=0.471453
frame:72   pts:4100096 pts_time:320.32
lavfi.scene_score=0.344053
frame:73   pts:4316672 pts_time:337.24
lavfi.scene_score=0.488116
frame:74   pts:4590592 pts_time:358.64
lavfi.scene_score=0.283975
frame:75   pts:4775424 pts_time:373.08
lavfi.scene_score=0.658632
frame:76   pts:4807680 pts_time:375.6
lavfi.scene_score=0.363832
frame:77   pts:4968960 pts_time:388.2
lavfi.scene_score=0.287111
frame:78   pts:5000192 pts_time:390.64
lavfi.scene_score=0.408795
frame:79   pts:5011456 pts_time:391.52
lavfi.scene_score=0.475924
frame:80   pts:5024256 pts_time:392.52
lavfi.scene_score=0.473516
frame:81   pts:5035520 pts_time:393.4
lavfi.scene_score=0.274490
frame:82   pts:5064192 pts_time:395.64
lavfi.scene_score=0.642458
frame:83   pts:5115904 pts_time:399.68
lavfi.scene_score=0.428765
frame:84   pts:5170688 pts_time:403.96
lavfi.scene_score=0.298594
frame:85   pts:5201920 pts_time:406.4
lavfi.scene_score=0.714502
frame:86   pts:5408768 pts_time:422.56
lavfi.scene_score=0.468468
frame:87   pts:5430272 pts_time:424.24
lavfi.scene_score=0.453443
frame:88   pts:5454848 pts_time:426.16
lavfi.scene_score=0.487957
frame:89   pts:5556224 pts_time:434.08
lavfi.scene_score=0.370144
frame:90   pts:5576704 pts_time:435.68
lavfi.scene_score=0.614547
frame:91   pts:5601280 pts_time:437.6
lavfi.scene_score=0.472610
frame:92   pts:5614080 pts_time:438.6
lavfi.scene_score=0.656650
frame:93   pts:5642752 pts_time:440.84
lavfi.scene_score=0.429560
frame:94   pts:5672960 pts_time:443.2
lavfi.scene_score=0.297899
frame:95   pts:5696000 pts_time:445
lavfi.scene_score=0.354207
frame:96   pts:5707776 pts_time:445.92
lavfi.scene_score=0.279104
frame:97   pts:5721600 pts_time:447
lavfi.scene_score=0.413482
frame:98   pts:5750272 pts_time:449.24
lavfi.scene_score=0.527207
frame:99   pts:5808128 pts_time:453.76
lavfi.scene_score=0.258503
frame:100  pts:5860864 pts_time:457.88
lavfi.scene_score=0.274098
frame:101  pts:5884928 pts_time:459.76
lavfi.scene_score=0.467231
frame:102  pts:5912064 pts_time:461.88
lavfi.scene_score=0.468148
frame:103  pts:5986816 pts_time:467.72
lavfi.scene_score=0.434289
frame:104  pts:6057984 pts_time:473.28
lavfi.scene_score=0.384832
frame:105  pts:6163968 pts_time:481.56
lavfi.scene_score=0.280189
frame:106  pts:6172160 pts_time:482.2
lavfi.scene_score=0.457224
frame:107  pts:6185472 pts_time:483.24
lavfi.scene_score=0.311029
frame:108  pts:6596096 pts_time:515.32
lavfi.scene_score=0.272505
frame:109  pts:6674432 pts_time:521.44
lavfi.scene_score=0.380078
frame:110  pts:7177216 pts_time:560.72
lavfi.scene_score=0.408160
frame:111  pts:7306752 pts_time:570.84
lavfi.scene_score=0.439352
frame:112  pts:7357952 pts_time:574.84
lavfi.scene_score=0.400909
frame:113  pts:7442944 pts_time:581.48
lavfi.scene_score=0.305530
frame:114  pts:7461376 pts_time:582.92
lavfi.scene_score=0.275792
frame:115  pts:7548416 pts_time:589.72
lavfi.scene_score=0.468988
frame:116  pts:7669248 pts_time:599.16
lavfi.scene_score=0.550372
frame:117  pts:7786496 pts_time:608.32
lavfi.scene_score=0.494733
frame:118  pts:7984640 pts_time:623.8
lavfi.scene_score=0.402818
frame:119  pts:8019456 pts_time:626.52
lavfi.scene_score=0.611309
frame:120  pts:8069632 pts_time:630.44
lavfi.scene_score=0.521634
frame:121  pts:8227328 pts_time:642.76
lavfi.scene_score=0.257672
frame:122  pts:8253952 pts_time:644.84
lavfi.scene_score=0.504423
frame:123  pts:8347136 pts_time:652.12
lavfi.scene_score=0.514020
frame:124  pts:8355840 pts_time:652.8
lavfi.scene_score=0.401113
frame:125  pts:8370176 pts_time:653.92
lavfi.scene_score=0.479295
frame:126  pts:8388608 pts_time:655.36
lavfi.scene_score=0.314631
frame:127  pts:8503808 pts_time:664.36
lavfi.scene_score=0.507056
frame:128  pts:8620544 pts_time:673.48
lavfi.scene_score=0.514153
frame:129  pts:8683520 pts_time:678.4
lavfi.scene_score=0.506736
frame:130  pts:8719360 pts_time:681.2
lavfi.scene_score=0.596860
frame:131  pts:8740864 pts_time:682.88
lavfi.scene_score=0.417132
frame:132  pts:8749056 pts_time:683.52
lavfi.scene_score=0.333004
frame:133  pts:8929792 pts_time:697.64
lavfi.scene_score=0.415610
frame:134  pts:9021952 pts_time:704.84
lavfi.scene_score=0.275483
frame:135  pts:9040896 pts_time:706.32
lavfi.scene_score=0.277851
frame:136  pts:9129472 pts_time:713.24
lavfi.scene_score=0.274350
frame:137  pts:9209344 pts_time:719.48
lavfi.scene_score=0.395591
frame:138  pts:9261056 pts_time:723.52
lavfi.scene_score=0.347934
frame:139  pts:9326080 pts_time:728.6
lavfi.scene_score=0.306585
frame:140  pts:9348096 pts_time:730.32
lavfi.scene_score=0.321853
frame:141  pts:9370624 pts_time:732.08
lavfi.scene_score=0.424745
frame:142  pts:9384960 pts_time:733.2
lavfi.scene_score=0.460194
frame:143  pts:9447424 pts_time:738.08
lavfi.scene_score=0.478758
frame:144  pts:9447936 pts_time:738.12
lavfi.scene_score=0.253253
frame:145  pts:9475072 pts_time:740.24
lavfi.scene_score=0.272353
frame:146  pts:9568768 pts_time:747.56
lavfi.scene_score=0.571710
frame:147  pts:9662464 pts_time:754.88
lavfi.scene_score=0.346547
frame:148  pts:9710592 pts_time:758.64
lavfi.scene_score=0.474495
frame:149  pts:9761280 pts_time:762.6
lavfi.scene_score=0.273865
frame:150  pts:9780224 pts_time:764.08
lavfi.scene_score=0.314317
frame:151  pts:9816064 pts_time:766.88
lavfi.scene_score=0.295734
frame:152  pts:9879040 pts_time:771.8
lavfi.scene_score=0.251971
frame:153  pts:9908736 pts_time:774.12
lavfi.scene_score=0.553128
frame:154  pts:9955840 pts_time:777.8
lavfi.scene_score=0.470811
frame:155  pts:10002432 pts_time:781.44
lavfi.scene_score=0.622829
frame:156  pts:10013184 pts_time:782.28
lavfi.scene_score=0.636994
frame:157  pts:10034176 pts_time:783.92
lavfi.scene_score=0.293365
frame:158  pts:10045952 pts_time:784.84
lavfi.scene_score=0.357819
frame:159  pts:10056192 pts_time:785.64
lavfi.scene_score=0.281454
frame:160  pts:10068480 pts_time:786.6
lavfi.scene_score=0.259318
frame:161  pts:10081792 pts_time:787.64
lavfi.scene_score=0.272163
frame:162  pts:10136064 pts_time:791.88
lavfi.scene_score=0.325650
frame:163  pts:10170880 pts_time:794.6
lavfi.scene_score=0.312966
frame:164  pts:10234880 pts_time:799.6
lavfi.scene_score=0.351343
frame:165  pts:10251264 pts_time:800.88
lavfi.scene_score=0.497702
frame:166  pts:10266112 pts_time:802.04
lavfi.scene_score=0.459619
frame:167  pts:10301440 pts_time:804.8
lavfi.scene_score=0.619719
frame:168  pts:10331136 pts_time:807.12
lavfi.scene_score=0.352776
frame:169  pts:10337280 pts_time:807.6
lavfi.scene_score=0.509403
frame:170  pts:10351104 pts_time:808.68
lavfi.scene_score=0.395920
frame:171  pts:10363392 pts_time:809.64
lavfi.scene_score=0.341259
frame:172  pts:10364416 pts_time:809.72
lavfi.scene_score=0.330162
frame:173  pts:10395136 pts_time:812.12
lavfi.scene_score=0.289925
frame:174  pts:10406912 pts_time:813.04
lavfi.scene_score=0.402370
frame:175  pts:10499072 pts_time:820.24
lavfi.scene_score=0.270055
frame:176  pts:10521088 pts_time:821.96
lavfi.scene_score=0.282837
frame:177  pts:10596864 pts_time:827.88
lavfi.scene_score=0.347688
frame:178  pts:10614272 pts_time:829.24
lavfi.scene_score=0.414143
frame:179  pts:10702848 pts_time:836.16
lavfi.scene_score=0.267718
frame:180  pts:10712064 pts_time:836.88
lavfi.scene_score=0.276537
frame:181  pts:10738176 pts_time:838.92
lavfi.scene_score=0.321746
frame:182  pts:10748928 pts_time:839.76
lavfi.scene_score=0.271398
frame:183  pts:10878464 pts_time:849.88
lavfi.scene_score=0.318359
frame:184  pts:10960896 pts_time:856.32
lavfi.scene_score=0.358570
frame:185  pts:10984448 pts_time:858.16
lavfi.scene_score=0.317349
frame:186  pts:11024896 pts_time:861.32
lavfi.scene_score=0.465448
frame:187  pts:11037696 pts_time:862.32
lavfi.scene_score=0.402279
frame:188  pts:11648512 pts_time:910.04
lavfi.scene_score=0.399878
frame:189  pts:11986944 pts_time:936.48
lavfi.scene_score=0.264489
frame:190  pts:12007424 pts_time:938.08
lavfi.scene_score=0.253851
frame:191  pts:12267008 pts_time:958.36
lavfi.scene_score=0.369036
frame:192  pts:12514304 pts_time:977.68
lavfi.scene_score=0.363206
frame:193  pts:12690432 pts_time:991.44
lavfi.scene_score=0.416892
frame:194  pts:12724224 pts_time:994.08
lavfi.scene_score=0.353173
frame:195  pts:12867584 pts_time:1005.28
lavfi.scene_score=0.408438
frame:196  pts:12907008 pts_time:1008.36
lavfi.scene_score=0.496992
frame:197  pts:12945408 pts_time:1011.36
lavfi.scene_score=0.416056
frame:198  pts:12957696 pts_time:1012.32
lavfi.scene_score=0.393494
frame:199  pts:13017088 pts_time:1016.96
lavfi.scene_score=0.268381
frame:200  pts:13281280 pts_time:1037.6
lavfi.scene_score=0.339490
frame:201  pts:13297664 pts_time:1038.88
lavfi.scene_score=0.311666
frame:202  pts:13330944 pts_time:1041.48
lavfi.scene_score=0.289620
frame:203  pts:13769728 pts_time:1075.76
lavfi.scene_score=0.458679
frame:204  pts:13972480 pts_time:1091.6
lavfi.scene_score=0.447849
frame:205  pts:13988352 pts_time:1092.84
lavfi.scene_score=0.326370
frame:206  pts:14018048 pts_time:1095.16
lavfi.scene_score=0.566415
frame:207  pts:14055936 pts_time:1098.12
lavfi.scene_score=0.442552
frame:208  pts:14123008 pts_time:1103.36
lavfi.scene_score=0.357525
frame:209  pts:14140928 pts_time:1104.76
lavfi.scene_score=0.600674
frame:210  pts:14152704 pts_time:1105.68
lavfi.scene_score=0.465042
frame:211  pts:14159872 pts_time:1106.24
lavfi.scene_score=0.306295
frame:212  pts:14176256 pts_time:1107.52
lavfi.scene_score=0.339712
frame:213  pts:14190080 pts_time:1108.6
lavfi.scene_score=0.459665
frame:214  pts:14206976 pts_time:1109.92
lavfi.scene_score=0.444078
frame:215  pts:14233088 pts_time:1111.96
lavfi.scene_score=0.533442
frame:216  pts:14243328 pts_time:1112.76
lavfi.scene_score=0.461195
frame:217  pts:14269440 pts_time:1114.8
lavfi.scene_score=0.529421
frame:218  pts:14534656 pts_time:1135.52
lavfi.scene_score=0.990489
frame:219  pts:14639616 pts_time:1143.72
lavfi.scene_score=0.487756
frame:220  pts:14651392 pts_time:1144.64
lavfi.scene_score=0.558887
frame:221  pts:14669824 pts_time:1146.08
lavfi.scene_score=0.424180
frame:222  pts:14686720 pts_time:1147.4
lavfi.scene_score=0.575791
frame:223  pts:14700544 pts_time:1148.48
lavfi.scene_score=0.679656
frame:224  pts:14715392 pts_time:1149.64
lavfi.scene_score=0.483481
frame:225  pts:14735872 pts_time:1151.24
lavfi.scene_score=0.537427
frame:226  pts:14746624 pts_time:1152.08
lavfi.scene_score=0.374888
frame:227  pts:14769664 pts_time:1153.88
lavfi.scene_score=0.266645
frame:228  pts:14820864 pts_time:1157.88
lavfi.scene_score=0.277252
frame:229  pts:14884352 pts_time:1162.84
lavfi.scene_score=0.351215
frame:230  pts:14926336 pts_time:1166.12
lavfi.scene_score=0.561266
frame:231  pts:14962688 pts_time:1168.96
lavfi.scene_score=0.516610
frame:232  pts:14991360 pts_time:1171.2
lavfi.scene_score=0.611383
frame:233  pts:15043072 pts_time:1175.24
lavfi.scene_score=0.362632
frame:234  pts:15057408 pts_time:1176.36
lavfi.scene_score=0.513432
frame:235  pts:15057920 pts_time:1176.4
lavfi.scene_score=0.254982
frame:236  pts:15102976 pts_time:1179.92
lavfi.scene_score=0.547251
frame:237  pts:15116288 pts_time:1180.96
lavfi.scene_score=0.668375
frame:238  pts:15127040 pts_time:1181.8
lavfi.scene_score=0.673916
frame:239  pts:15134208 pts_time:1182.36
lavfi.scene_score=0.375106
frame:240  pts:15642112 pts_time:1222.04
lavfi.scene_score=0.426142
frame:241  pts:15651328 pts_time:1222.76
lavfi.scene_score=0.583714
frame:242  pts:15863296 pts_time:1239.32
lavfi.scene_score=0.656662
frame:243  pts:15931392 pts_time:1244.64
lavfi.scene_score=0.305226
frame:244  pts:15947776 pts_time:1245.92
lavfi.scene_score=0.431183
frame:245  pts:15972352 pts_time:1247.84
lavfi.scene_score=0.580846
frame:246  pts:15995904 pts_time:1249.68
lavfi.scene_score=0.438913
frame:247  pts:16014848 pts_time:1251.16
lavfi.scene_score=0.607264
frame:248  pts:16076288 pts_time:1255.96
lavfi.scene_score=0.328930
frame:249  pts:16113664 pts_time:1258.88
lavfi.scene_score=0.318922
frame:250  pts:16140288 pts_time:1260.96
lavfi.scene_score=0.442865
frame:251  pts:16169984 pts_time:1263.28
lavfi.scene_score=0.266334
frame:252  pts:16244224 pts_time:1269.08
lavfi.scene_score=0.409856
frame:253  pts:16304128 pts_time:1273.76
lavfi.scene_score=0.491339
frame:254  pts:16327680 pts_time:1275.6
lavfi.scene_score=0.603111
frame:255  pts:16352256 pts_time:1277.52
lavfi.scene_score=0.563669
frame:256  pts:16370176 pts_time:1278.92
lavfi.scene_score=0.298260
frame:257  pts:16401408 pts_time:1281.36
lavfi.scene_score=0.594847
frame:258  pts:16408064 pts_time:1281.88
lavfi.scene_score=0.465962
frame:259  pts:16420864 pts_time:1282.88
lavfi.scene_score=0.403979
frame:260  pts:16436736 pts_time:1284.12
lavfi.scene_score=0.441440
frame:261  pts:16463360 pts_time:1286.2
lavfi.scene_score=0.574195
frame:262  pts:16492544 pts_time:1288.48
lavfi.scene_score=0.628775
frame:263  pts:16515072 pts_time:1290.24
lavfi.scene_score=0.523287
frame:264  pts:16542208 pts_time:1292.36
lavfi.scene_score=0.520857
frame:265  pts:16600064 pts_time:1296.88
lavfi.scene_score=0.590970
frame:266  pts:16630272 pts_time:1299.24
lavfi.scene_score=0.358214
frame:267  pts:16686592 pts_time:1303.64
lavfi.scene_score=0.372091
frame:268  pts:16699392 pts_time:1304.64
lavfi.scene_score=0.327112
frame:269  pts:16708096 pts_time:1305.32
lavfi.scene_score=0.442156
frame:270  pts:16718848 pts_time:1306.16
lavfi.scene_score=0.591984
frame:271  pts:16743424 pts_time:1308.08
lavfi.scene_score=0.461245
frame:272  pts:16751104 pts_time:1308.68
lavfi.scene_score=0.300514
frame:273  pts:16766976 pts_time:1309.92
lavfi.scene_score=0.448935
frame:274  pts:16775168 pts_time:1310.56
lavfi.scene_score=0.462801
frame:275  pts:16804864 pts_time:1312.88
lavfi.scene_score=0.407060
frame:276  pts:16832512 pts_time:1315.04
lavfi.scene_score=0.269198
frame:277  pts:17058304 pts_time:1332.68
lavfi.scene_score=0.343790
frame:278  pts:17088000 pts_time:1335
lavfi.scene_score=0.493916
frame:279  pts:17148928 pts_time:1339.76
lavfi.scene_score=0.280928
frame:280  pts:17179136 pts_time:1342.12
lavfi.scene_score=0.494836
frame:281  pts:17198080 pts_time:1343.6
lavfi.scene_score=0.274277
frame:282  pts:17342464 pts_time:1354.88
lavfi.scene_score=0.515640
frame:283  pts:17713664 pts_time:1383.88
lavfi.scene_score=0.554797
frame:284  pts:17868288 pts_time:1395.96
lavfi.scene_score=0.365829
frame:285  pts:17884672 pts_time:1397.24
lavfi.scene_score=0.322173
frame:286  pts:17935872 pts_time:1401.24
lavfi.scene_score=0.322027
frame:287  pts:18013696 pts_time:1407.32
lavfi.scene_score=0.594625
frame:288  pts:18114048 pts_time:1415.16
lavfi.scene_score=0.632333
frame:289  pts:18139136 pts_time:1417.12
lavfi.scene_score=0.629688
frame:290  pts:18151424 pts_time:1418.08
lavfi.scene_score=0.608809
frame:291  pts:18184192 pts_time:1420.64
lavfi.scene_score=0.283336
frame:292  pts:18211840 pts_time:1422.8
lavfi.scene_score=0.585032
frame:293  pts:18276352 pts_time:1427.84
lavfi.scene_score=0.577868
frame:294  pts:18311680 pts_time:1430.6
lavfi.scene_score=0.331288
frame:295  pts:18391040 pts_time:1436.8
lavfi.scene_score=0.274723
frame:296  pts:18426880 pts_time:1439.6
lavfi.scene_score=0.408444
frame:297  pts:18452992 pts_time:1441.64
lavfi.scene_score=0.445582
frame:298  pts:18489856 pts_time:1444.52
lavfi.scene_score=0.404978
frame:299  pts:18500096 pts_time:1445.32
lavfi.scene_score=0.804929
frame:300  pts:18556928 pts_time:1449.76
lavfi.scene_score=0.287006
frame:301  pts:18600960 pts_time:1453.2
lavfi.scene_score=0.403019
frame:302  pts:18667520 pts_time:1458.4
lavfi.scene_score=0.260516
frame:303  pts:18689536 pts_time:1460.12
lavfi.scene_score=0.458372
frame:304  pts:18720256 pts_time:1462.52
lavfi.scene_score=0.281012
frame:305  pts:18739200 pts_time:1464
lavfi.scene_score=0.412953
frame:306  pts:18917888 pts_time:1477.96
lavfi.scene_score=0.252803
frame:307  pts:18940928 pts_time:1479.76
lavfi.scene_score=0.253230
frame:308  pts:19077120 pts_time:1490.4
lavfi.scene_score=0.356485
frame:309  pts:19251200 pts_time:1504
lavfi.scene_score=0.382313
frame:310  pts:19352576 pts_time:1511.92
lavfi.scene_score=0.267718
frame:311  pts:19375616 pts_time:1513.72
lavfi.scene_score=0.436967
frame:312  pts:19428352 pts_time:1517.84
lavfi.scene_score=0.427425
frame:313  pts:19436032 pts_time:1518.44
lavfi.scene_score=0.264501
frame:314  pts:19565056 pts_time:1528.52
lavfi.scene_score=0.691106
frame:315  pts:19584000 pts_time:1530
lavfi.scene_score=0.335158
frame:316  pts:19924480 pts_time:1556.6
lavfi.scene_score=0.486951
frame:317  pts:19936768 pts_time:1557.56
lavfi.scene_score=0.382266
frame:318  pts:19950592 pts_time:1558.64
lavfi.scene_score=0.483645
frame:319  pts:20028416 pts_time:1564.72
lavfi.scene_score=0.628469
frame:320  pts:20061184 pts_time:1567.28
lavfi.scene_score=1.000000
frame:321  pts:20125184 pts_time:1572.28
lavfi.scene_score=1.000000
